<svg width="84" height="94" viewBox="0 0 84 94" fill="none" xmlns="http://www.w3.org/2000/svg">
<path d="M41.668 0.00432992C24.918 0.00432992 0 2.36373 0 8.85983C0 9.12545 0.0546887 9.38327 0.136721 9.63327C0.144533 9.66843 0.13672 9.69968 0.148439 9.73483L6.27344 27.9338C6.36328 28.1994 6.5586 28.4182 6.8125 28.5393C7.8906 29.0549 9.2109 29.5315 10.7227 29.9768C9.1446 30.9573 8.2383 32.0784 8.2383 33.3362C8.2383 33.5315 8.26564 33.7229 8.30861 33.9143C8.31252 33.9299 8.30861 33.9495 8.31252 33.9651C8.35549 34.1409 8.41408 34.3167 8.46096 34.4182L12.3751 46.0702C12.3985 46.1679 12.4337 46.2655 12.4883 46.3554C13.129 47.4687 14.2969 48.4921 15.8828 49.4062C15.0508 50.2148 14.582 51.1093 14.582 52.0859C14.582 52.4492 14.6484 52.7968 14.7695 53.1367C14.7734 53.1445 14.7695 53.1484 14.7734 53.1562L19.4296 66.9962C19.8632 68.3087 20.9062 69.5079 22.4101 70.5626C21.9141 71.3048 21.6406 72.0938 21.6406 72.9181C21.6406 73.2814 21.707 73.6369 21.8086 73.9845C21.8164 74.0119 21.8086 74.047 21.8164 74.0744C21.8516 74.1837 21.8867 74.2931 21.9297 74.3947L27.1445 89.9147C27.1874 90.0436 27.2578 90.1647 27.3476 90.2701C29.2538 92.4498 34.6093 93.7506 41.6716 93.7506C48.7339 93.7506 54.0896 92.4498 55.9956 90.2701C56.0854 90.1647 56.1558 90.0436 56.1987 89.9147L61.4135 74.3947C61.4565 74.2892 61.4995 74.1681 61.5541 73.9845C61.5698 73.9376 61.5737 73.8908 61.5815 73.8439C61.6557 73.5392 61.6987 73.2306 61.6987 72.9142C61.6987 72.09 61.4252 71.3009 60.9252 70.5587C62.4291 69.5079 63.4721 68.3087 63.9057 66.9962L68.5619 53.1522C68.5658 53.1444 68.5619 53.1405 68.5658 53.1327C68.6869 52.7928 68.7573 52.4413 68.7573 52.0819C68.7573 51.1053 68.2924 50.2108 67.4643 49.3983C69.0463 48.4803 70.2104 47.4608 70.851 46.3514C70.9056 46.2615 70.9408 46.1678 70.9642 46.0701L74.8509 34.4881C74.8705 34.4412 74.8822 34.3905 74.8978 34.3436C74.9095 34.3162 74.9134 34.2889 74.9252 34.2616C74.9603 34.16 74.9994 34.0623 75.0267 33.9608C75.0306 33.9412 75.0267 33.9217 75.0306 33.9022C75.0736 33.7147 75.097 33.5272 75.097 33.3319C75.097 32.0702 74.1947 30.9491 72.6165 29.9686C74.1282 29.5233 75.4485 29.0428 76.5227 28.5311C76.7766 28.41 76.9719 28.1912 77.0618 27.9256L83.1868 9.7266C83.2024 9.67972 83.2024 9.63285 83.2102 9.58988C83.2844 9.3516 83.3352 9.1055 83.3352 8.8555C83.3352 2.3594 58.4172 0 41.6672 0L41.668 0.00432992ZM54.297 89.0393C52.9259 90.3713 48.5704 91.6721 41.668 91.6721C34.7656 91.6721 30.414 90.3713 29.039 89.0393L25.2656 77.8053C28.8281 79.9069 34.7187 81.235 41.6676 81.235C48.6129 81.235 54.5076 79.9069 58.0696 77.8053L54.297 89.0393ZM59.6173 72.9223C59.6173 75.8715 52.2462 79.1528 41.6683 79.1528C31.0904 79.1528 23.7193 75.8676 23.7193 72.9223C23.7193 72.5005 23.8912 72.0669 24.188 71.6411C28.2622 73.7349 34.504 75.0044 41.668 75.0044C48.8321 75.0044 55.07 73.7349 59.1451 71.6411C59.4419 72.0669 59.6138 72.4966 59.6138 72.9184L59.6173 72.9223ZM61.9298 66.3442C60.8595 69.5786 52.9884 72.9223 41.6678 72.9223C30.3472 72.9223 22.4768 69.5785 21.4058 66.3403L18.0269 56.2893C22.9761 58.9651 32.5189 60.3791 41.6679 60.3791C50.8169 60.3791 60.3589 58.965 65.3089 56.2893L61.9298 66.3442ZM66.672 52.0902C66.672 54.684 57.1603 58.3011 41.668 58.3011C26.1757 58.3011 16.664 54.6839 16.664 52.0902C16.664 51.559 17.0859 50.9808 17.8593 50.4027C23.2187 52.7504 31.7503 54.1722 41.6683 54.1722C51.5863 54.1722 60.1173 52.7503 65.4773 50.4027C66.2507 50.9809 66.672 51.5589 66.672 52.0902ZM68.9806 45.4222C66.8986 48.7542 56.9216 52.0902 41.6686 52.0902C26.4156 52.0902 16.4386 48.7543 14.3566 45.4222L11.591 37.1917C17.3137 40.1448 29.54 41.6722 41.669 41.6722C53.794 41.6722 66.021 40.1449 71.747 37.1917L68.9814 45.4183L68.9806 45.4222ZM73.0118 33.3402C73.0118 35.8871 60.8008 39.5902 41.6678 39.5902C22.5348 39.5902 10.3238 35.8871 10.3238 33.3402C10.3238 32.5434 11.5347 31.6332 13.7613 30.7621C20.8551 32.3754 30.8983 33.3402 41.6673 33.3402C52.4363 33.3402 62.4793 32.3754 69.5733 30.7621C71.7999 31.6371 73.0108 32.5433 73.0108 33.3402H73.0118ZM75.2306 26.8441C69.1915 29.5316 56.1256 31.2582 41.6686 31.2582C27.2116 31.2582 14.1456 29.5316 8.1066 26.8441L3.3097 12.5861C10.6339 16.2853 28.6257 17.7189 41.6687 17.7189C54.7117 17.7189 72.7037 16.2892 80.0277 12.5861L75.2306 26.8441ZM41.6686 15.6331C17.5046 15.6331 2.0866 11.6214 2.0866 8.86363C2.0866 6.10193 17.5086 2.09413 41.6686 2.09413C65.8326 2.09413 81.2506 6.10583 81.2506 8.86363C81.2506 11.6253 65.8286 15.6331 41.6686 15.6331Z" fill="#9A841A"/>
</svg>
