<svg width="90" height="90" viewBox="0 0 90 90" fill="none" xmlns="http://www.w3.org/2000/svg">
<path fill-rule="evenodd" clip-rule="evenodd" d="M15.8783 11.238H14.808C14.5619 11.238 14.3393 11.3396 14.1791 11.4997C14.019 11.6599 13.9174 11.8864 13.9174 12.1286V18.2106C13.9174 18.4567 14.019 18.6794 14.1791 18.8395C14.3393 18.9997 14.5658 19.1013 14.808 19.1013H15.8783C16.1244 19.1013 16.3471 18.9997 16.5072 18.8395C16.6674 18.6794 16.7729 18.4528 16.7729 18.2106V12.1286C16.7729 11.8825 16.6713 11.6599 16.5072 11.4997C16.3432 11.3396 16.1205 11.238 15.8783 11.238ZM32.4053 11.238H31.335C31.0889 11.238 30.8663 11.3396 30.7061 11.4997C30.546 11.6599 30.4405 11.8864 30.4405 12.1286V18.2106C30.4405 18.4567 30.5421 18.6794 30.7061 18.8395C30.8702 18.9997 31.0928 19.1013 31.335 19.1013H32.4053C32.6514 19.1013 32.8741 18.9997 33.0342 18.8395C33.1944 18.6794 33.296 18.4528 33.296 18.2106V12.1286C33.296 11.8825 33.1944 11.6599 33.0342 11.4997C32.8741 11.3396 32.6475 11.238 32.4053 11.238ZM55.8273 76.539L50.9367 73.7148L51.2844 78.7617L55.8273 76.539ZM53.5421 72.4609L68.4051 46.7149L66.0848 45.3751L63.6356 49.6173C63.6044 49.6876 63.5653 49.754 63.5223 49.8126L51.2174 71.1216L53.5376 72.4614L53.5421 72.4609ZM70.4761 47.9059L72.7964 49.2457L61.5584 68.7147C61.5272 68.7616 61.4998 68.8124 61.4725 68.8631L57.9334 74.9959L55.6131 73.6561L70.4761 47.9101L70.4761 47.9059ZM14.1561 44.8161C13.496 44.8161 12.9569 44.2809 12.9569 43.6169C12.9569 42.9567 13.4921 42.4177 14.1561 42.4177H49.5941C50.2543 42.4177 50.7933 42.9529 50.7933 43.6169C50.7933 44.2771 50.2582 44.8161 49.5941 44.8161H14.1561ZM14.1561 59.8471C13.496 59.8471 12.9569 59.3119 12.9569 58.6479C12.9569 57.9877 13.4921 57.4487 14.1561 57.4487H49.5941C50.2543 57.4487 50.7933 57.9839 50.7933 58.6479C50.7933 59.3081 50.2582 59.8471 49.5941 59.8471H14.1561ZM14.1561 74.8781C13.496 74.8781 12.9569 74.3429 12.9569 73.6789C12.9569 73.0187 13.4921 72.4797 14.1561 72.4797H44.1361C44.7963 72.4797 45.3353 73.0149 45.3353 73.6789C45.3353 74.3391 44.8002 74.8781 44.1361 74.8781H14.1561ZM76.1481 38.8551C79.445 37.4254 82.2575 35.0934 84.2731 32.1637C86.3747 29.109 87.6051 25.402 87.6051 21.4017C87.6051 16.1517 85.4762 11.3977 82.0387 7.9607C78.5973 4.5193 73.8473 2.3943 68.5977 2.3943C63.3481 2.3943 58.5937 4.5232 55.1567 7.9607C51.7153 11.4021 49.5903 16.1521 49.5903 21.4017C49.5903 26.3665 51.4926 30.8861 54.6059 34.2727C56.8247 36.6829 59.6528 38.5149 62.852 39.5305C62.8911 39.5422 62.9302 39.5539 62.9692 39.5657C64.0356 39.8938 65.1411 40.136 66.2817 40.2727L66.3364 40.1828C67.1997 38.6867 68.5942 37.6789 70.1411 37.2687C71.688 36.8547 73.3989 37.0266 74.8911 37.8898V37.8937C75.3638 38.1672 75.7856 38.4914 76.1567 38.8586L76.1481 38.8551ZM50.8361 9.4531C51.6096 8.3086 52.4884 7.2422 53.4611 6.2695C57.3361 2.3945 62.6877 0 68.5981 0C74.5085 0 79.8601 2.3945 83.7351 6.2695C87.6101 10.1445 90.0046 15.4961 90.0046 21.4065C90.0046 25.8987 88.614 30.0745 86.2429 33.5235C84.0593 36.6954 81.0476 39.2501 77.5163 40.8673C77.6296 41.1368 77.7234 41.4103 77.8015 41.6915C78.2156 43.2384 78.0437 44.9493 77.1804 46.4415L63.7544 69.6955V84.6875C63.7544 86.1484 63.1567 87.4727 62.1958 88.4336C61.2349 89.3946 59.9067 89.9922 58.4497 89.9922L5.3047 90C3.8438 90 2.5195 89.4024 1.5586 88.4414C0.59766 87.4805 0 86.1523 0 84.6953V19.2813C0 17.8204 0.59766 16.4961 1.5586 15.5352C2.51954 14.5743 3.8477 13.9766 5.3047 13.9766H11.5195V12.1328C11.5195 11.2266 11.8906 10.4062 12.4843 9.80863C13.0781 9.21103 13.9023 8.84379 14.8085 8.84379H15.8788C16.7851 8.84379 17.6054 9.21488 18.203 9.80863C18.8007 10.4063 19.1679 11.2266 19.1679 12.1328V13.9766H28.0507V12.1328C28.0507 11.2266 28.4218 10.4062 29.0155 9.80863C29.6132 9.21097 30.4335 8.84379 31.3397 8.84379H32.41C33.3163 8.84379 34.1366 9.21488 34.7342 9.80863C35.3319 10.4063 35.6991 11.2266 35.6991 12.1328V13.9766H44.5819V12.1328C44.5819 11.2266 44.9529 10.4062 45.5467 9.80863C46.1444 9.21097 46.9647 8.84379 47.8709 8.84379H48.9412C49.6443 8.84379 50.2971 9.07028 50.8361 9.4531ZM47.3322 18.9258C47.301 18.9024 47.2697 18.875 47.2385 18.8438C47.0744 18.6797 46.9729 18.457 46.9729 18.2149V12.1329C46.9729 11.8868 47.0744 11.6641 47.2385 11.5039C47.4025 11.3399 47.6252 11.2422 47.8674 11.2422H48.9377C49.1408 11.2422 49.3283 11.3086 49.4728 11.418C49.5197 11.4532 49.5588 11.4883 49.5978 11.5313C48.422 13.793 47.633 16.2852 47.3284 18.9297L47.3322 18.9258ZM61.3522 41.5508V48.8047L48.5982 70.8987C48.5865 70.9182 48.5709 70.9378 48.5592 70.9612C48.4342 71.176 48.3834 71.4104 48.4029 71.6409L49.024 80.6956C49.067 81.3557 49.6373 81.8518 50.2974 81.8089C50.4888 81.7972 50.6646 81.7386 50.8208 81.6487L58.8325 77.7307C59.0669 77.6331 59.2701 77.4612 59.4068 77.2268L61.356 73.8518V84.6958C61.356 85.4966 61.0278 86.2231 60.5005 86.7505C59.9731 87.2779 59.2466 87.606 58.4458 87.606L5.3048 87.6021C4.50402 87.6021 3.7775 87.274 3.2501 86.7466C2.7227 86.2193 2.39463 85.4927 2.39463 84.6919V19.2819C2.39463 18.4811 2.72275 17.7546 3.2501 17.2272C3.77744 16.6999 4.504 16.3717 5.3048 16.3717H11.5196V18.2155C11.5196 19.1218 11.8907 19.9421 12.4844 20.5397C13.0821 21.1374 13.9024 21.5046 14.8086 21.5046H15.8789C16.7852 21.5046 17.6055 21.1335 18.2031 20.5397C18.8008 19.9421 19.168 19.1217 19.168 18.2155V16.3717H28.0508V18.2155C28.0508 19.1218 28.4219 19.9421 29.0156 20.5397C29.6133 21.1374 30.4336 21.5046 31.3398 21.5046H32.4101C33.3164 21.5046 34.1367 21.1335 34.7343 20.5397C35.332 19.9421 35.6992 19.1217 35.6992 18.2155V16.3717H44.582V18.2155C44.582 19.1218 44.953 19.9421 45.5468 20.5397C45.9882 20.9812 46.5585 21.3015 47.1913 21.4343C47.1952 23.5007 47.4921 25.5007 48.039 27.3913H14.156C13.4958 27.3913 12.9568 27.9264 12.9568 28.5905C12.9568 29.2506 13.4919 29.7897 14.156 29.7897H48.894C49.8588 32.0514 51.2026 34.1139 52.8432 35.8991C55.1596 38.4147 58.0698 40.3757 61.351 41.5553L61.3522 41.5508ZM64.9889 42.5078C64.571 42.4375 64.1569 42.3555 63.7467 42.2578V44.6562L64.5827 43.207C64.5944 43.1836 64.6061 43.1602 64.6178 43.1406C64.6295 43.1211 64.6413 43.1016 64.6569 43.0781L64.9889 42.5039L64.9889 42.5078ZM68.0045 42.0508L68.3951 41.3711C68.9264 40.4531 69.7858 39.8359 70.7467 39.5781C71.7077 39.3203 72.7624 39.4258 73.6842 39.957V39.9531L73.6882 39.957C74.1374 40.2148 74.5124 40.5547 74.8093 40.9453C74.8327 40.9805 74.86 41.0156 74.8874 41.0508C75.1608 41.4336 75.36 41.8633 75.4811 42.3125C75.7389 43.2734 75.6335 44.3281 75.1022 45.25L73.9889 47.1797L67.278 43.3047L67.8991 42.2305C67.9382 42.1758 67.9733 42.1172 68.0007 42.0547L68.0045 42.0508ZM76.2467 14.2808H78.6256V29.1988H58.5666V14.2808H60.9455V15.9683C60.9455 16.6285 61.4807 17.1675 62.1447 17.1675C62.8049 17.1675 63.3439 16.6323 63.3439 15.9683V14.2808H67.4025V15.9683C67.4025 16.6285 67.9377 17.1675 68.6017 17.1675C69.2619 17.1675 69.8009 16.6323 69.8009 15.9683V14.2808H73.8595V15.9683C73.8595 16.6285 74.3947 17.1675 75.0587 17.1675C75.7189 17.1675 76.2579 16.6323 76.2579 15.9683V14.2808H76.2467ZM73.8522 10.7769C73.8522 10.1167 74.3874 9.5777 75.0514 9.5777C75.7116 9.5777 76.2506 10.1129 76.2506 10.7769V11.8863H79.8248C80.485 11.8863 81.024 12.4215 81.024 13.0855V30.3975C81.024 31.0577 80.4889 31.5967 79.8248 31.5967H57.3718C56.7117 31.5967 56.1726 31.0615 56.1726 30.3975V13.0855C56.1726 12.4253 56.7078 11.8863 57.3718 11.8863H60.946V10.7769C60.946 10.1167 61.4812 9.5777 62.1452 9.5777C62.8054 9.5777 63.3444 10.1129 63.3444 10.7769V11.8863H67.403V10.7769C67.403 10.1167 67.9382 9.5777 68.6022 9.5777C69.2624 9.5777 69.8014 10.1129 69.8014 10.7769V11.8863H73.86V10.7769H73.8522Z" fill="#9A841A"/>
</svg>
